<?xml version="1.0" encoding="UTF-8" standalone="no"?>
<!-- Generator: Adobe Illustrator 19.0.0, SVG Export Plug-In . SVG Version: 6.00 Build 0)  -->

<svg
   xmlns:dc="http://purl.org/dc/elements/1.1/"
   xmlns:cc="http://creativecommons.org/ns#"
   xmlns:rdf="http://www.w3.org/1999/02/22-rdf-syntax-ns#"
   xmlns:svg="http://www.w3.org/2000/svg"
   xmlns="http://www.w3.org/2000/svg"
   xmlns:sodipodi="http://sodipodi.sourceforge.net/DTD/sodipodi-0.dtd"
   xmlns:inkscape="http://www.inkscape.org/namespaces/inkscape"
   version="1.1"
   id="Layer_1"
   x="0px"
   y="0px"
   viewBox="0 0 280.028 280.028"
   style="enable-background:new 0 0 280.028 280.028;"
   xml:space="preserve"
   inkscape:version="0.91 r13725"
   sodipodi:docname="hospital.svg"><metadata
     id="metadata43"><rdf:RDF><cc:Work
         rdf:about=""><dc:format>image/svg+xml</dc:format><dc:type
           rdf:resource="http://purl.org/dc/dcmitype/StillImage" /></cc:Work></rdf:RDF></metadata><defs
     id="defs41" /><sodipodi:namedview
     pagecolor="#ffffff"
     bordercolor="#666666"
     borderopacity="1"
     objecttolerance="10"
     gridtolerance="10"
     guidetolerance="10"
     inkscape:pageopacity="0"
     inkscape:pageshadow="2"
     inkscape:window-width="1366"
     inkscape:window-height="715"
     id="namedview39"
     showgrid="false"
     showguides="false"
     inkscape:zoom="1.6855456"
     inkscape:cx="169.46437"
     inkscape:cy="138.51921"
     inkscape:window-x="0"
     inkscape:window-y="0"
     inkscape:window-maximized="1"
     inkscape:current-layer="Layer_1" /><rect
     style="fill:#ebebeb;fill-opacity:1;stroke:#ebebeb;stroke-opacity:1"
     id="rect3377"
     width="282.40112"
     height="282.40112"
     x="-0.59327972"
     y="-0.59327984" /><g
     id="g3"><path
       style="fill:#EBEBEB;"
       d="M140.014,0c77.323,0,140.014,62.691,140.014,140.014c0,77.314-62.691,140.014-140.014,140.014   S0,217.336,0,140.014S62.682,0,140.014,0z"
       id="path5" /><path
       style="fill:#E2574C;"
       d="M78.749,113.787h35.135V78.749c0-4.83,3.912-8.751,8.742-8.751h34.968   c4.822,0,8.733,3.92,8.733,8.751v35.03h34.951c4.839,0,8.751,3.912,8.751,8.751v35.012c0,4.848-3.912,8.768-8.751,8.768h-34.951   v34.933c0,4.839-3.912,8.751-8.733,8.751h-34.968c-4.83,0-8.742-3.912-8.742-8.751V166.31H78.749c-4.839,0-8.76-3.92-8.76-8.768   V122.53C69.989,117.699,73.91,113.787,78.749,113.787z"
       id="path7" /></g><g
     id="g9" /><g
     id="g11" /><g
     id="g13" /><g
     id="g15" /><g
     id="g17" /><g
     id="g19" /><g
     id="g21" /><g
     id="g23" /><g
     id="g25" /><g
     id="g27" /><g
     id="g29" /><g
     id="g31" /><g
     id="g33" /><g
     id="g35" /><g
     id="g37" /><path
     style="fill:#2fc5f7;fill-opacity:1;stroke:#2fc5f7;stroke-width:0.17590743;stroke-miterlimit:4;stroke-dasharray:none;stroke-opacity:1"
     d="m 118.93129,209.16076 c -1.98597,-0.93954 -3.47728,-2.45284 -4.41556,-4.48069 -0.61089,-1.32026 -0.62645,-1.75603 -0.7074,-19.81578 l -0.0828,-18.46583 -18.223613,0 c -17.869464,0 -18.256434,-0.0123 -19.912783,-0.632 -2.009153,-0.75172 -3.842482,-2.4693 -4.8747,-4.56694 l -0.726057,-1.47546 0,-19.57823 c 0,-15.53241 0.08151,-19.80851 0.394459,-20.69261 0.586581,-1.65715 3.035567,-4.17503 4.864933,-5.0018 l 1.563325,-0.70654 18.457231,-0.0848 18.457235,-0.0848 0.0828,-18.455206 0.0828,-18.455203 0.83241,-1.69513 c 0.46436,-0.945609 1.42256,-2.214596 2.16709,-2.869961 2.46795,-2.172373 1.77178,-2.109652 23.38013,-2.106408 l 19.3029,0.0029 1.4832,0.692673 c 2.91296,1.360389 4.54041,3.366046 5.16175,6.361329 0.21555,1.039065 0.32609,7.49583 0.32609,19.04649 l 0,17.474526 18.46583,0.0868 18.46583,0.0868 1.46794,0.7278 c 1.80865,0.89672 3.46689,2.56775 4.37245,4.40621 l 0.68569,1.39207 0,19.72655 c 0,19.43133 -0.009,19.74675 -0.62462,21.0765 -0.91319,1.9736 -2.30663,3.4108 -4.21607,4.34848 l -1.68539,0.82765 -18.45512,0.0828 -18.45513,0.0828 -0.0953,18.30891 c -0.0693,13.30932 -0.19304,18.59242 -0.45335,19.34715 -0.66309,1.92254 -2.46878,3.92499 -4.47659,4.96436 l -1.87076,0.96844 -19.47816,-2.4e-4 -19.47815,-2.3e-4 -1.78253,-0.84329 z"
     id="path4173"
     inkscape:connector-curvature="0" /></svg>